<svg xmlns="http://www.w3.org/2000/svg" width="777" height="474" viewBox="0 0 777 474" style="background:#fff">
  <g fill="none" fill-rule="evenodd">
    <rect width="791" height="474" x="-14" fill="#B6D1F8" fill-opacity=".65"/>
    <g fill="#353535" opacity=".435" transform="translate(-1 25)">
      <path d="M0,402 L2.86424762e-15,449.010637 L777.00063,449.010637 L777,405 L755.976204,405 L755.976204,377.982358 L746.999983,377.982358 L746.999983,369 L735,365 L726,366 L712,369 L707,365 L692.857864,365 L669,370 L667,378 L659,379 L659,407 L514.996528,407 L514.996528,338.970492 L503,339 L489.961595,339 L485,342 L482,378 L478,381 L475,389 L469,390 L463,379 L463,342.875216 L455,340 L455,337 L443,336 L440,339 L433,341 L427,350 L427,389 L423,395 L420,395 L412,393 L406,389 L400.90098,389 L394,389 L394,395 L384,395 L384,358.986114 L377.919505,358.986114 L377.919505,351.939748 L371.92587,351.939748 L371.92587,358.070318 L366.913036,392.053888 L359.920129,392.053888 L344.711913,392.053888 L310,383 L301.937742,383 L301.937742,394.000176 L277.979114,394.000176 L277.979114,404.04782 L256.900291,404.04782 L256.900291,371.999845 C256.900291,371.999845 223,335 170,335 C117,335 82,371.999845 82,371.999845 L77.9009805,372 L77.9009805,402.000163 L0,402 Z"/>
      <path fill-opacity=".99" d="M329.10728,0 L328,4 L328,19 L327,20 L327,36 L326,38 L326,46 L325,48 L325,78 C325,78 322.299706,79.2017627 322,81 C321.799706,82.2017627 324,84 324,84 L324,126 L322,128 L322,136 C322,136 317.93916,136 318,138 C317.93916,138.06084 318,140 318,140 C318,140 316,140 316,141 L316,145 C316,145 314,146 312,148 C310,150 311,155 312,156 C313,157 314,157 314,157 C314,157 312,159 312,160 C312,161 312.99583,162.794995 314,164 C315.00417,165.205005 317,166 317,166 L321,166 C321,166 319,276 314,330 C309,384 301,450.004484 301,450.004484 L329,450.004484 C329,450.004484 329.05364,424.3721 329.10728,382.221058 C329.160919,424.3721 329.214559,450.004484 329.214559,450.004484 L357.214559,450.004484 C357.214559,450.004484 349.214559,384 344.214559,330 C339.214559,276 337.214559,166 337.214559,166 L341.214559,166 C341.214559,166 343.210389,165.205005 344.214559,164 C345.21873,162.794995 346.214559,161 346.214559,160 C346.214559,159 344.214559,157 344.214559,157 C344.214559,157 345.214559,157 346.214559,156 C347.214559,155 348.214559,150 346.214559,148 C344.214559,146 342.214559,145 342.214559,145 L342.214559,141 C342.214559,140 340.214559,140 340.214559,140 C340.214559,140 340.275399,138.06084 340.214559,138 C340.275399,136 336.214559,136 336.214559,136 L336.214559,128 L334.214559,126 L334.214559,84 C334.214559,84 336.414853,82.2017627 336.214559,81 C335.914853,79.2017627 333.214559,78 333.214559,78 L333.214559,48 L332.214559,46 L332.214559,38 L331.214559,36 L331.214559,20 L330.214559,19 L330.214559,4 L329.10728,0 Z"/>
      <rect width="31" height="186" x="370" y="263"/>
      <rect width="50" height="145" x="412" y="304"/>
      <polygon points="781 267 761 265 756 259 756 282.022 753.442 279.464 753.442 261.941 719.944 261.941 719.944 232.985 707 232.985 704 228 704 203.979 702 203.979 702 228 698.838 228 698.838 195.989 697 195.989 697 227 689 227 683.477 232.523 677.804 232.523 677.804 288.013 661.968 288.013 657.869 292.112 657.869 298.064 639 298.064 634.9 302.164 634.9 306.104 624.999 306.104 624.999 311.101 607.719 311.101 616 313 616 317.123 604.797 317.123 599.921 317.123 599.921 321.001 597 321.001 597 325 570.923 325 570.923 294.981 569 294.981 569 325.017 556.957 325.017 556.957 332.065 540 332.065 540 346.143 499.814 346.143 499.814 287 497.905 285.09 497.905 278.999 483 278.999 483 284 479.838 287.162 479.838 362 472.927 362 472.927 285.938 445.984 285.938 445.984 304.027 445.984 445 778.014 445"/>
      <polygon points="1 337 1 448.005 320.002 448.005 320.002 332.961 298.909 332.961 292.658 332.961 292.658 354 283.942 354 283.942 360.074 280.999 360.074 280.999 330 275 327 275 306.975 266.941 306.975 264.399 309.516 254.988 309.516 254.988 314 252 314 252 361 243 361 243 351 233 346 227 346 227 349 111 378 111 335 105.901 335 105.901 327.999 97 327.999 95 332 95 336 86.938 336 86.938 364.154 74.944 364.154 74.944 334 71 334 66.257 329.257 56.915 329.257 56.915 347 55 347 55 332.964 45 332.964 45 322 42 322 42 312.945 37 312.945 34.027 309.972 23.953 309.972 20.432 313.493 20.432 336.131"/>
    </g>
    <path fill="#FFFFFF" d="M469.872953 187.000004C468.681761 184.940789 468 182.550012 468 180 468 172.570503 473.787175 166.492673 481.099542 166.028492 483.768417 158.439862 490.998934 153 499.5 153 508.724125 153 516.452377 159.404592 518.480436 168.009458 518.652847 168.003172 518.826053 168 519 168 520.745287 168 522.415984 168.319361 523.95684 168.902832 525.994993 163.691317 531.06642 160 537 160 544.731986 160 551 166.268014 551 174 551 179.892127 547.360079 184.934105 542.206171 187L469.872951 187zM669.399212 123.469879C674.617942 119.597288 678 113.389388 678 106.391566 678 94.6538518 668.484702 85.1385542 656.746988 85.1385542 654.774222 85.1385542 652.864235 85.40734 651.051649 85.9102878 651.466916 84.0343339 651.686746 82.0989689 651.686746 80.1204819 651.686746 62.9331144 637.753632 49 620.566264 49 603.378897 49 589.445782 62.9331144 589.445782 80.1204819 589.445782 86.2931475 590.900239 92.0460752 593.560603 96.8845957 592.637337 98.3083042 591.833072 99.8163391 591.161897 101.394612 587.384658 95.4982691 580.775206 91.5903613 573.253012 91.5903613 561.515298 91.5903613 552 101.105659 552 112.843373 552 116.714475 553.034962 120.343849 554.843278 123.469885L669.399212 123.469879z"/>
  </g>
</svg>
